# xmcd CD database file
#
# Track frame offsets:
#	150
#	25907
#	42873
#	58101
#	70525
#	82288
#	117713
#	145604
#	164494
#	195080
#	215890
#	246825
#	270142
#	284745
#	298440
#	325990
#
# Disc length: 4530 seconds
#
# Revision: 0
# Processed by: cddbd v1.5.2PL0 Copyright (c) Steve Scherf et al.
# Submitted via: CDex 1.70beta2
#
DISCID=0011b010
DTITLE=The very best of Jazz - The very best of Jazz CD2
DYEAR=1900
DGENRE=Jazz
TTITLE0=Miles Davis - Mr. Pastorius
TTITLE1=Carmen McRae - What are you doing
TTITLE2=Dizzy Gillespie - Mrs. Diz
TTITLE3=John Coltrane - My favourite things
TTITLE4=Mose Allision - Your mind is on vacation
TTITLE5=Art Blakey's Jazz Messengers - Blue monk
TTITLE6=Charles Mingus - My jelly roll soul
TTITLE7=Nina Simone - I loves your porgy
TTITLE8=Ornette Coleman - Congeniality
TTITLE9=Bill Evans - Sometimes ago
TTITLE10=Sonny Rollins - You do something to me
TTITLE11=Lee Konitz - All of me
TTITLE12=Billie Holiday - Strange fruit
TTITLE13=Ben Webster - Stella by starlight
TTITLE14=Roland Kirk - Black and crazy blues
TTITLE15=Jaco Pastorius - Chromatic fantacy
EXTD=
EXTT0=
EXTT1=
EXTT2=
EXTT3=
EXTT4=
EXTT5=
EXTT6=
EXTT7=
EXTT8=
EXTT9=
EXTT10=
EXTT11=
EXTT12=
EXTT13=
EXTT14=
EXTT15=
PLAYORDER=
